# Blender 4.4.3
# www.blender.org
mtllib End Game Asset.mtl
o Cylinder
v 0.000000 0.000000 -2.131170
v 0.000000 4.534957 -2.131170
v 0.815564 0.000000 -1.968945
v 0.815564 4.534957 -1.968945
v 1.506965 0.000000 -1.506965
v 1.506965 4.534957 -1.506965
v 1.968945 0.000000 -0.815564
v 1.968945 4.534957 -0.815564
v 2.131170 0.000000 0.000000
v 2.131170 4.534957 0.000000
v 1.968945 0.000000 0.815564
v 1.968945 4.534957 0.815564
v 1.506965 0.000000 1.506965
v 1.506965 4.534957 1.506965
v 0.815564 0.000000 1.968945
v 0.815564 4.534957 1.968945
v 0.000000 0.000000 2.131170
v 0.000000 4.534957 2.131170
v -0.815564 0.000000 1.968945
v -0.815564 4.534957 1.968945
v -1.506965 0.000000 1.506965
v -1.506965 4.534957 1.506965
v -1.968945 0.000000 0.815564
v -1.968945 4.534957 0.815564
v -2.131170 0.000000 0.000000
v -2.131170 4.534957 0.000000
v -1.968945 0.000000 -0.815564
v -1.968945 4.534957 -0.815564
v -1.506965 0.000000 -1.506965
v -1.506965 4.534957 -1.506965
v -0.815564 0.000000 -1.968945
v -0.815564 4.534957 -1.968945
vn 0.1951 -0.0000 -0.9808
vn 0.5556 -0.0000 -0.8315
vn 0.8315 -0.0000 -0.5556
vn 0.9808 -0.0000 -0.1951
vn 0.9808 -0.0000 0.1951
vn 0.8315 -0.0000 0.5556
vn 0.5556 -0.0000 0.8315
vn 0.1951 -0.0000 0.9808
vn -0.1951 -0.0000 0.9808
vn -0.5556 -0.0000 0.8315
vn -0.8315 -0.0000 0.5556
vn -0.9808 -0.0000 0.1951
vn -0.9808 -0.0000 -0.1951
vn -0.8315 -0.0000 -0.5556
vn -0.5556 -0.0000 -0.8315
vn -0.1951 -0.0000 -0.9808
vn -0.0000 -1.0000 -0.0000
vt 0.836951 0.002534
vt 0.836951 0.459657
vt 0.899212 0.459657
vt 0.899212 0.002534
vt 0.951994 0.459657
vt 0.951994 0.002534
vt 0.987262 0.459657
vt 0.987262 0.002534
vt 0.999646 0.459657
vt 0.999646 0.002534
vt 0.951994 0.459657
vt 0.951994 0.002534
vt 0.899212 0.459657
vt 0.899212 0.002534
vt 0.836951 0.459657
vt 0.836951 0.002534
vt 0.774690 0.459657
vt 0.774690 0.002534
vt 0.721907 0.459657
vt 0.721907 0.002534
vt 0.686639 0.459657
vt 0.686639 0.002534
vt 0.674255 0.459657
vt 0.674255 0.002534
vt 0.721907 0.459657
vt 0.721907 0.002534
vt 0.774690 0.459657
vt 0.774690 0.002534
vt 0.700407 0.831596
vt 0.710807 0.883881
vt 0.710807 0.779310
vt 0.740425 0.734984
vt 0.740425 0.928207
vt 0.784751 0.705366
vt 0.784751 0.957825
vt 0.837037 0.694966
vt 0.837037 0.968225
vt 0.889323 0.957825
vt 0.889323 0.705366
vt 0.933649 0.928207
vt 0.933649 0.734984
vt 0.963266 0.883881
vt 0.963266 0.779310
vt 0.973666 0.831596
s 0
usemtl Material.001
f 1/1/1 2/2/1 4/3/1 3/4/1
f 3/4/2 4/3/2 6/5/2 5/6/2
f 5/6/3 6/5/3 8/7/3 7/8/3
f 7/8/4 8/7/4 10/9/4 9/10/4
f 9/10/5 10/9/5 12/7/5 11/8/5
f 11/8/6 12/7/6 14/11/6 13/12/6
f 13/12/7 14/11/7 16/13/7 15/14/7
f 15/14/8 16/13/8 18/15/8 17/16/8
f 17/16/9 18/15/9 20/17/9 19/18/9
f 19/18/10 20/17/10 22/19/10 21/20/10
f 21/20/11 22/19/11 24/21/11 23/22/11
f 23/22/12 24/21/12 26/23/12 25/24/12
f 25/24/13 26/23/13 28/21/13 27/22/13
f 27/22/14 28/21/14 30/25/14 29/26/14
f 29/26/15 30/25/15 32/27/15 31/28/15
f 31/28/16 32/27/16 2/2/16 1/1/16
f 25/29/17 27/30/17 23/31/17
f 21/32/17 23/31/17 27/30/17 29/33/17
f 19/34/17 21/32/17 29/33/17 31/35/17
f 17/36/17 19/34/17 31/35/17 1/37/17
f 1/37/17 3/38/17 15/39/17 17/36/17
f 3/38/17 5/40/17 13/41/17 15/39/17
f 5/40/17 7/42/17 11/43/17 13/41/17
f 9/44/17 11/43/17 7/42/17
