# Blender 4.4.3
# www.blender.org
mtllib Plat Asset.mtl
o Cube.001
v 3.000000 0.250000 -3.000000
v 3.000000 -0.250000 -3.000000
v 3.000000 0.250000 3.000000
v 3.000000 -0.250000 3.000000
v -3.000000 0.250000 -3.000000
v -3.000000 -0.250000 -3.000000
v -3.000000 0.250000 3.000000
v -3.000000 -0.250000 3.000000
v 0.000000 -0.250000 -3.000000
v 0.000000 0.250000 3.000000
v 0.000000 -0.250000 3.000000
v 0.000000 0.250000 -3.000000
v -3.000000 -0.250000 0.000000
v 3.000000 0.250000 0.000000
v -3.000000 0.250000 0.000000
v 3.000000 -0.250000 0.000000
v 0.000000 -0.250000 0.000000
v 0.000000 0.250000 0.000000
v 3.000000 0.000000 -3.000000
v -3.000000 0.000000 3.000000
v 3.000000 0.000000 3.000000
v -3.000000 0.000000 -3.000000
v 0.000000 0.000000 -3.000000
v 0.000000 0.000000 3.000000
v 3.000000 0.000000 0.000000
v -3.000000 0.000000 0.000000
v -2.577296 -0.125000 -0.000000
v -2.577296 0.125000 -0.000000
v 2.577296 0.125000 -0.000000
v 2.577296 -0.125000 -0.000000
v 0.000000 0.125000 -2.577296
v 0.000000 -0.125000 -2.577296
v -2.577296 -0.125000 -2.577296
v -2.577296 0.125000 -2.577296
v 2.577296 0.125000 -2.577296
v 2.577296 -0.125000 -2.577296
v 0.000000 -0.125000 2.577296
v 0.000000 0.125000 2.577296
v -2.577296 -0.125000 2.577296
v -2.577296 0.125000 2.577296
v 2.577296 0.125000 2.577296
v 2.577296 -0.125000 2.577296
v 3.049390 0.125000 -3.049390
v 3.300000 0.034141 -3.300000
v 3.216147 0.095402 -3.216147
v 3.049390 -0.125000 -3.049390
v 3.300000 -0.039946 -3.300000
v 3.216147 -0.053935 -3.216147
v 3.049390 0.125000 3.049390
v 3.300000 0.034141 3.300000
v 3.216147 0.095402 3.216147
v 3.049390 -0.125000 3.049390
v 3.300000 -0.039946 3.300000
v 3.216147 -0.094690 3.216147
v -3.049390 0.125000 -3.049390
v -3.300000 0.034141 -3.300000
v -3.216147 0.095402 -3.216147
v -3.049390 -0.125000 -3.049390
v -3.300000 -0.039946 -3.300000
v -3.216147 -0.094690 -3.216147
v -3.049390 0.125000 3.049390
v -3.300000 0.034141 3.300000
v -3.216147 0.095402 3.216147
v -3.049390 -0.125000 3.049390
v -3.300000 -0.039946 3.300000
v -3.216147 -0.094690 3.216147
v -3.049390 -0.125000 -0.000000
v -3.300000 -0.039946 0.000000
v -3.216147 -0.094690 -0.000000
v 3.049390 0.125000 -0.000000
v 3.300000 0.034141 0.000000
v 3.216147 0.095402 -0.000000
v -3.049390 0.125000 -0.000000
v -3.300000 0.034141 0.000000
v -3.216147 0.095402 -0.000000
v 3.049390 -0.125000 -0.000000
v 3.300000 -0.039946 0.000000
v 3.216147 -0.094690 -0.000000
v 0.000000 -0.125000 -3.049390
v 0.000000 -0.039946 -3.300000
v 0.000000 -0.094690 -3.216147
v 0.000000 0.125000 3.049390
v 0.000000 0.034141 3.300000
v 0.000000 0.095402 3.216147
v 0.000000 -0.125000 3.049390
v 0.000000 -0.039946 3.300000
v 0.000000 -0.094690 3.216147
v 0.000000 0.125000 -3.049390
v 0.000000 0.034141 -3.300000
v 0.000000 0.095402 -3.216147
v -1.650000 -0.039946 -3.300000
v -1.971555 -0.125000 -3.049390
v -1.738532 -0.094690 -3.216147
v -1.650000 0.034141 3.300000
v -1.971555 0.125000 3.049390
v -1.738532 0.095402 3.216147
v -1.650000 -0.039946 3.300000
v -1.971555 -0.125000 3.049390
v -1.738532 -0.094690 3.216147
v -1.650000 0.034141 -3.300000
v -1.971555 0.125000 -3.049390
v -1.738532 0.095402 -3.216147
v 1.650000 -0.039946 3.300000
v 1.971555 -0.125000 3.049390
v 1.738532 -0.094690 3.216147
v 1.650000 0.034141 -3.300000
v 1.971555 0.125000 -3.049390
v 1.738532 0.095402 -3.216147
v 1.650000 -0.039946 -3.300000
v 1.971555 -0.125000 -3.049390
v 1.738532 -0.053935 -3.216147
v 1.650000 0.034141 3.300000
v 1.971555 0.125000 3.049390
v 1.738532 0.095402 3.216147
v -3.300000 0.034141 -1.650000
v -3.049390 0.125000 -1.971555
v -3.216147 0.095402 -1.738532
v 3.300000 -0.039946 -1.650000
v 3.049390 -0.125000 -1.971555
v 3.216147 -0.094690 -1.738532
v -3.300000 -0.039946 -1.650000
v -3.049390 -0.125000 -1.971555
v -3.216147 -0.094690 -1.738532
v 3.300000 0.034141 -1.650000
v 3.049390 0.125000 -1.971555
v 3.216147 0.095402 -1.738532
v -3.300000 -0.039946 1.650000
v -3.049390 -0.125000 1.971555
v -3.216147 -0.094690 1.738532
v 3.300000 0.034141 1.650000
v 3.049390 0.125000 1.971555
v 3.216147 0.095402 1.738532
v -3.300000 0.034141 1.650000
v -3.049390 0.125000 1.971555
v -3.216147 0.095402 1.738532
v 3.300000 -0.039946 1.650000
v 3.049390 -0.125000 1.971555
v 3.216147 -0.094690 1.738532
vn -0.0000 1.0000 -0.0000
vn -0.0000 -0.0000 1.0000
vn -1.0000 -0.0000 -0.0000
vn -0.0000 -1.0000 -0.0000
vn 1.0000 -0.0000 -0.0000
vn -0.0000 -0.0000 -1.0000
vn -0.1788 -0.9839 -0.0000
vn -0.5467 -0.8374 -0.0000
vn -0.0000 -0.9839 -0.1788
vn -0.0000 -0.8374 -0.5467
vn -0.0000 0.9846 0.1748
vn -0.0000 0.8075 0.5899
vn 0.1748 0.9846 -0.0000
vn 0.5899 0.8075 -0.0000
vn -0.0000 -0.9839 0.1788
vn -0.0000 -0.8374 0.5467
vn -0.1748 0.9846 -0.0000
vn -0.5899 0.8075 -0.0000
vn -0.0000 0.9846 -0.1748
vn -0.0000 0.8075 -0.5899
vn 0.2936 -0.9558 -0.0152
vn 0.3795 -0.9251 -0.0121
vn 0.1788 -0.9839 -0.0000
vn 0.5467 -0.8374 -0.0000
vn 0.0105 -0.9547 -0.2975
vn 0.0111 -0.9232 -0.3842
vn -0.0000 -0.8373 0.5467
vn -0.0000 -0.8373 -0.5467
vn -0.0000 -0.9199 -0.3920
vn -0.0000 -0.9864 -0.1646
vt 0.169444 0.834259
vt 0.308437 0.834259
vt 0.308437 0.973252
vt 0.169444 0.973252
vt 0.500000 0.491979
vt 0.500000 0.994514
vt 0.338360 0.994514
vt 0.343076 0.491979
vt 0.030452 0.834259
vt 0.030452 0.973252
vt 0.661640 0.994514
vt 0.656924 0.491979
vt 0.030452 0.695267
vt 0.169444 0.695267
vt 0.308437 0.695267
vt 0.340757 0.996849
vt 0.340757 0.492053
vt 0.500000 0.492053
vt 0.500000 0.996849
vt 0.659243 0.996849
vt 0.659243 0.492053
vt 0.340757 0.996846
vt 0.500000 0.996846
vt 0.659243 0.996846
vt 0.976399 0.926462
vt 0.954526 0.954526
vt 0.926462 0.976399
vt 0.976399 0.976399
vt 0.926462 0.693837
vt 0.976399 0.693837
vt 0.976399 0.743774
vt 0.954526 0.715710
vt 0.988010 0.682226
vt 0.911564 0.682226
vt 0.693837 0.926462
vt 0.715710 0.954526
vt 0.743774 0.976399
vt 0.693837 0.976399
vt 0.693837 0.693837
vt 0.743774 0.693837
vt 0.715710 0.715710
vt 0.693837 0.743774
vt 0.693837 0.835118
vt 0.715710 0.835118
vt 0.835118 0.693837
vt 0.835118 0.715710
vt 0.954526 0.835118
vt 0.976399 0.835118
vt 0.835118 0.954526
vt 0.835118 0.976399
vt 0.758672 0.988010
vt 0.835118 0.988010
vt 0.988010 0.835118
vt 0.988010 0.758672
vt 0.911564 0.988010
vt 0.682226 0.911564
vt 0.682226 0.988010
vt 0.682226 0.758672
vt 0.682226 0.835118
vt 0.835118 0.682226
vt 0.758672 0.682226
vt 0.988010 0.988010
vt 0.988010 0.911564
vt 0.682226 0.682226
vt 0.984125 0.984125
vt 0.984125 0.915666
vt 0.984125 0.686111
vt 0.915666 0.686111
vt 0.915666 0.984125
vt 0.686111 0.984125
vt 0.686111 0.915666
vt 0.754570 0.984125
vt 0.984125 0.754570
vt 0.686111 0.686111
vt 0.754570 0.686111
vt 0.686111 0.754570
vt 0.984125 0.835118
vt 0.686111 0.835118
vt 0.835118 0.686111
vt 0.835118 0.984125
s 0
usemtl Material.002
f 18/1/1 15/2/1 7/3/1 10/4/1
f 24/5/2 10/6/2 7/7/2 20/8/2
f 26/5/3 15/6/3 5/7/3 22/8/3
f 17/1/4 16/9/4 4/10/4 11/4/4
f 25/5/5 14/6/5 3/11/5 21/12/5
f 23/5/6 12/6/6 1/11/6 19/12/6
f 22/8/6 5/7/6 12/6/6 23/5/6
f 13/2/4 17/1/4 11/4/4 8/3/4
f 21/12/2 3/11/2 10/6/2 24/5/2
f 14/9/1 18/1/1 10/4/1 3/10/1
f 1/13/1 12/14/1 18/1/1 14/9/1
f 6/15/4 9/14/4 17/1/4 13/2/4
f 19/8/5 1/7/5 14/6/5 25/5/5
f 9/14/4 2/13/4 16/9/4 17/1/4
f 20/12/3 7/11/3 15/6/3 26/5/3
f 12/14/1 5/15/1 15/2/1 18/1/1
f 8/16/3 20/17/3 26/18/3 13/19/3
f 2/20/5 19/21/5 25/18/5 16/19/5
f 4/22/2 21/17/2 24/18/2 11/23/2
f 6/20/6 22/21/6 23/18/6 9/19/6
f 9/19/6 23/18/6 19/17/6 2/16/6
f 16/19/5 25/18/5 21/17/5 4/16/5
f 13/19/3 26/18/3 22/21/3 6/20/3
f 11/23/2 24/18/2 20/21/2 8/24/2
f 128/25/4 39/26/4 98/27/4 64/28/4
f 40/26/1 134/25/1 61/28/1 95/27/1
f 101/29/1 55/30/1 116/31/1 34/32/1
f 59/33/6 56/33/6 100/34/6 91/34/6
f 131/35/1 41/36/1 113/37/1 49/38/1
f 43/39/1 107/40/1 35/41/1 125/42/1
f 70/43/1 29/44/1 41/36/1 131/35/1
f 79/45/4 110/40/4 36/41/4 32/46/4
f 122/31/4 33/32/4 27/47/4 67/48/4
f 30/44/4 76/43/4 137/35/4 42/36/4
f 92/29/4 79/45/4 32/46/4 33/32/4
f 37/49/4 42/36/4 104/37/4 85/50/4
f 38/49/1 40/26/1 95/27/1 82/50/1
f 103/51/2 112/51/2 83/52/2 86/52/2
f 68/53/3 74/53/3 115/54/3 121/54/3
f 121/54/3 115/54/3 56/33/3 59/33/3
f 67/48/4 27/47/4 39/26/4 128/25/4
f 39/26/4 37/49/4 85/50/4 98/27/4
f 86/52/2 83/52/2 94/55/2 97/55/2
f 42/36/4 137/35/4 52/38/4 104/37/4
f 136/56/5 130/56/5 50/57/5 53/57/5
f 118/58/5 124/58/5 71/59/5 77/59/5
f 91/34/6 100/34/6 89/60/6 80/60/6
f 88/45/1 101/29/1 34/32/1 31/46/1
f 80/60/6 89/60/6 106/61/6 109/61/6
f 110/40/4 46/39/4 119/42/4 36/41/4
f 107/40/1 88/45/1 31/46/1 35/41/1
f 65/62/3 62/62/3 133/63/3 127/63/3
f 41/36/1 38/49/1 82/50/1 113/37/1
f 58/30/4 92/29/4 33/32/4 122/31/4
f 53/57/2 50/57/2 112/51/2 103/51/2
f 109/61/6 106/61/6 44/64/6 47/64/6
f 127/63/3 133/63/3 74/53/3 68/53/3
f 77/59/5 71/59/5 130/56/5 136/56/5
f 125/42/1 35/41/1 29/44/1 70/43/1
f 97/55/2 94/55/2 62/62/2 65/62/2
f 28/47/1 73/48/1 134/25/1 40/26/1
f 36/41/4 119/42/4 76/43/4 30/44/4
f 34/32/1 116/31/1 73/48/1 28/47/1
f 128/25/7 64/28/7 66/65/7 129/66/7
f 129/66/8 66/65/8 65/62/8 127/63/8
f 92/29/9 58/30/9 60/67/9 93/68/9
f 93/68/10 60/67/10 59/33/10 91/34/10
f 95/27/11 61/28/11 63/65/11 96/69/11
f 96/69/12 63/65/12 62/62/12 94/55/12
f 131/35/13 49/38/13 51/70/13 132/71/13
f 132/71/14 51/70/14 50/57/14 130/56/14
f 104/37/15 52/38/15 54/70/15 105/72/15
f 105/72/16 54/70/16 53/57/16 103/51/16
f 116/31/17 55/30/17 57/67/17 117/73/17
f 117/73/18 57/67/18 56/33/18 115/54/18
f 107/40/19 43/39/19 45/74/19 108/75/19
f 108/75/20 45/74/20 44/64/20 106/61/20
f 119/42/21 46/39/21 48/74/21 120/76/21
f 120/76/22 48/74/22 47/64/22 118/58/22
f 122/31/7 67/48/7 69/77/7 123/73/7
f 123/73/8 69/77/8 68/53/8 121/54/8
f 125/42/13 70/43/13 72/78/13 126/76/13
f 126/76/14 72/78/14 71/59/14 124/58/14
f 134/25/17 73/48/17 75/77/17 135/66/17
f 135/66/18 75/77/18 74/53/18 133/63/18
f 137/35/23 76/43/23 78/78/23 138/71/23
f 138/71/24 78/78/24 77/59/24 136/56/24
f 110/40/25 79/45/25 81/79/25 111/75/25
f 111/75/26 81/79/26 80/60/26 109/61/26
f 113/37/11 82/50/11 84/80/11 114/72/11
f 114/72/12 84/80/12 83/52/12 112/51/12
f 98/27/15 85/50/15 87/80/15 99/69/15
f 99/69/27 87/80/27 86/52/27 97/55/27
f 101/29/19 88/45/19 90/79/19 102/68/19
f 102/68/20 90/79/20 89/60/20 100/34/20
f 79/45/9 92/29/9 93/68/9 81/79/9
f 81/79/28 93/68/28 91/34/28 80/60/28
f 82/50/11 95/27/11 96/69/11 84/80/11
f 84/80/12 96/69/12 94/55/12 83/52/12
f 64/28/15 98/27/15 99/69/15 66/65/15
f 66/65/16 99/69/16 97/55/16 65/62/16
f 55/30/19 101/29/19 102/68/19 57/67/19
f 57/67/20 102/68/20 100/34/20 56/33/20
f 85/50/15 104/37/15 105/72/15 87/80/15
f 87/80/27 105/72/27 103/51/27 86/52/27
f 88/45/19 107/40/19 108/75/19 90/79/19
f 90/79/20 108/75/20 106/61/20 89/60/20
f 46/39/29 110/40/29 111/75/29 48/74/29
f 48/74/30 111/75/30 109/61/30 47/64/30
f 49/38/11 113/37/11 114/72/11 51/70/11
f 51/70/12 114/72/12 112/51/12 50/57/12
f 73/48/17 116/31/17 117/73/17 75/77/17
f 75/77/18 117/73/18 115/54/18 74/53/18
f 76/43/23 119/42/23 120/76/23 78/78/23
f 78/78/24 120/76/24 118/58/24 77/59/24
f 58/30/7 122/31/7 123/73/7 60/67/7
f 60/67/8 123/73/8 121/54/8 59/33/8
f 43/39/13 125/42/13 126/76/13 45/74/13
f 45/74/14 126/76/14 124/58/14 44/64/14
f 67/48/7 128/25/7 129/66/7 69/77/7
f 69/77/8 129/66/8 127/63/8 68/53/8
f 70/43/13 131/35/13 132/71/13 72/78/13
f 72/78/14 132/71/14 130/56/14 71/59/14
f 61/28/17 134/25/17 135/66/17 63/65/17
f 63/65/18 135/66/18 133/63/18 62/62/18
f 52/38/23 137/35/23 138/71/23 54/70/23
f 54/70/24 138/71/24 136/56/24 53/57/24
f 47/64/5 44/64/5 124/58/5 118/58/5
